<mxfile host="Electron" modified="2024-07-30T21:56:20.827Z" agent="Mozilla/5.0 (Windows NT 10.0; Win64; x64) AppleWebKit/537.36 (KHTML, like Gecko) draw.io/24.5.3 Chrome/124.0.6367.207 Electron/30.0.6 Safari/537.36" etag="CXEhexpFmOesRQ2Bkj6m" version="24.5.3" type="device">
  <diagram name="PÃ¡gina-1" id="lIuxcNbRsnBK0VmYMHIx">
    <mxGraphModel dx="2607" dy="1535" grid="1" gridSize="10" guides="1" tooltips="1" connect="1" arrows="1" fold="1" page="1" pageScale="1" pageWidth="827" pageHeight="1169" math="0" shadow="0">
      <root>
        <mxCell id="0" />
        <mxCell id="1" parent="0" />
        <mxCell id="CP4K7bw7YaNsQZcNAUP3-3" value="" style="edgeStyle=orthogonalEdgeStyle;rounded=0;orthogonalLoop=1;jettySize=auto;html=1;strokeWidth=3;fillColor=#f0a30a;strokeColor=#BD7000;" edge="1" parent="1" source="CP4K7bw7YaNsQZcNAUP3-1" target="CP4K7bw7YaNsQZcNAUP3-2">
          <mxGeometry relative="1" as="geometry" />
        </mxCell>
        <mxCell id="CP4K7bw7YaNsQZcNAUP3-1" value="recoger numero de edificios" style="rounded=1;whiteSpace=wrap;html=1;strokeWidth=3;fillColor=#f0a30a;fontColor=#000000;strokeColor=#BD7000;" vertex="1" parent="1">
          <mxGeometry x="320" y="10" width="160" height="80" as="geometry" />
        </mxCell>
        <mxCell id="CP4K7bw7YaNsQZcNAUP3-8" value="" style="edgeStyle=orthogonalEdgeStyle;rounded=0;orthogonalLoop=1;jettySize=auto;html=1;strokeWidth=3;fillColor=#f0a30a;strokeColor=#BD7000;" edge="1" parent="1" source="CP4K7bw7YaNsQZcNAUP3-2" target="CP4K7bw7YaNsQZcNAUP3-7">
          <mxGeometry relative="1" as="geometry" />
        </mxCell>
        <mxCell id="CP4K7bw7YaNsQZcNAUP3-2" value="recoger las alturas de los edificios" style="whiteSpace=wrap;html=1;rounded=1;strokeWidth=3;fillColor=#f0a30a;fontColor=#000000;strokeColor=#BD7000;" vertex="1" parent="1">
          <mxGeometry x="330" y="120" width="140" height="80" as="geometry" />
        </mxCell>
        <mxCell id="CP4K7bw7YaNsQZcNAUP3-9" style="rounded=0;orthogonalLoop=1;jettySize=auto;html=1;strokeWidth=3;fillColor=#f0a30a;strokeColor=#BD7000;" edge="1" parent="1" source="CP4K7bw7YaNsQZcNAUP3-7" target="CP4K7bw7YaNsQZcNAUP3-10">
          <mxGeometry relative="1" as="geometry">
            <mxPoint x="400" y="440" as="targetPoint" />
          </mxGeometry>
        </mxCell>
        <mxCell id="CP4K7bw7YaNsQZcNAUP3-26" style="edgeStyle=orthogonalEdgeStyle;rounded=0;orthogonalLoop=1;jettySize=auto;html=1;strokeWidth=3;fillColor=#f0a30a;strokeColor=#BD7000;" edge="1" parent="1">
          <mxGeometry relative="1" as="geometry">
            <mxPoint x="400" y="1309.96" as="targetPoint" />
            <mxPoint x="350.03703703703695" y="279.99703703703693" as="sourcePoint" />
            <Array as="points">
              <mxPoint x="180" y="280" />
              <mxPoint x="180" y="1270" />
              <mxPoint x="400" y="1270" />
            </Array>
          </mxGeometry>
        </mxCell>
        <mxCell id="CP4K7bw7YaNsQZcNAUP3-7" value="por cada edificio" style="rhombus;whiteSpace=wrap;html=1;rounded=1;strokeWidth=3;fillColor=#f0a30a;fontColor=#000000;strokeColor=#BD7000;" vertex="1" parent="1">
          <mxGeometry x="350" y="220" width="100" height="100" as="geometry" />
        </mxCell>
        <mxCell id="CP4K7bw7YaNsQZcNAUP3-13" value="" style="edgeStyle=orthogonalEdgeStyle;rounded=0;orthogonalLoop=1;jettySize=auto;html=1;strokeWidth=3;fillColor=#f0a30a;strokeColor=#BD7000;" edge="1" parent="1" source="CP4K7bw7YaNsQZcNAUP3-10" target="CP4K7bw7YaNsQZcNAUP3-12">
          <mxGeometry relative="1" as="geometry" />
        </mxCell>
        <mxCell id="CP4K7bw7YaNsQZcNAUP3-10" value="separamos los edificios entre los que estan antes y los que estan despues del edificio que estamos revisando" style="rounded=1;whiteSpace=wrap;html=1;strokeWidth=3;fillColor=#f0a30a;fontColor=#000000;strokeColor=#BD7000;" vertex="1" parent="1">
          <mxGeometry x="330" y="350" width="140" height="90" as="geometry" />
        </mxCell>
        <mxCell id="CP4K7bw7YaNsQZcNAUP3-14" style="edgeStyle=orthogonalEdgeStyle;rounded=0;orthogonalLoop=1;jettySize=auto;html=1;strokeWidth=3;fillColor=#f0a30a;strokeColor=#BD7000;" edge="1" parent="1" source="CP4K7bw7YaNsQZcNAUP3-12" target="CP4K7bw7YaNsQZcNAUP3-15">
          <mxGeometry relative="1" as="geometry">
            <mxPoint x="400" y="760" as="targetPoint" />
          </mxGeometry>
        </mxCell>
        <mxCell id="CP4K7bw7YaNsQZcNAUP3-25" style="edgeStyle=orthogonalEdgeStyle;rounded=0;orthogonalLoop=1;jettySize=auto;html=1;entryX=1;entryY=0.5;entryDx=0;entryDy=0;strokeWidth=3;fillColor=#f0a30a;strokeColor=#BD7000;" edge="1" parent="1" source="CP4K7bw7YaNsQZcNAUP3-12" target="CP4K7bw7YaNsQZcNAUP3-7">
          <mxGeometry relative="1" as="geometry">
            <Array as="points">
              <mxPoint x="530" y="530" />
              <mxPoint x="530" y="270" />
            </Array>
          </mxGeometry>
        </mxCell>
        <mxCell id="CP4K7bw7YaNsQZcNAUP3-12" value="por cada unidad de distancia&amp;nbsp;" style="rhombus;whiteSpace=wrap;html=1;rounded=1;strokeWidth=3;fillColor=#f0a30a;fontColor=#000000;strokeColor=#BD7000;" vertex="1" parent="1">
          <mxGeometry x="335" y="470" width="130" height="130" as="geometry" />
        </mxCell>
        <mxCell id="CP4K7bw7YaNsQZcNAUP3-17" style="edgeStyle=orthogonalEdgeStyle;rounded=0;orthogonalLoop=1;jettySize=auto;html=1;strokeWidth=3;fillColor=#f0a30a;strokeColor=#BD7000;" edge="1" parent="1" source="CP4K7bw7YaNsQZcNAUP3-15" target="CP4K7bw7YaNsQZcNAUP3-16">
          <mxGeometry relative="1" as="geometry" />
        </mxCell>
        <mxCell id="CP4K7bw7YaNsQZcNAUP3-15" value="tomaremos el edificio anterior que esta en la distancia especifica&amp;nbsp;" style="rounded=1;whiteSpace=wrap;html=1;strokeWidth=3;fillColor=#f0a30a;fontColor=#000000;strokeColor=#BD7000;" vertex="1" parent="1">
          <mxGeometry x="300" y="630" width="200" height="90" as="geometry" />
        </mxCell>
        <mxCell id="CP4K7bw7YaNsQZcNAUP3-19" value="" style="edgeStyle=orthogonalEdgeStyle;rounded=0;orthogonalLoop=1;jettySize=auto;html=1;strokeWidth=3;fillColor=#f0a30a;strokeColor=#BD7000;" edge="1" parent="1" source="CP4K7bw7YaNsQZcNAUP3-16" target="CP4K7bw7YaNsQZcNAUP3-18">
          <mxGeometry relative="1" as="geometry" />
        </mxCell>
        <mxCell id="CP4K7bw7YaNsQZcNAUP3-16" value="tomaremos el edificio siguiente que esta en la distancia especifica&amp;nbsp;" style="rounded=1;whiteSpace=wrap;html=1;strokeWidth=3;fillColor=#f0a30a;fontColor=#000000;strokeColor=#BD7000;" vertex="1" parent="1">
          <mxGeometry x="300" y="750" width="200" height="90" as="geometry" />
        </mxCell>
        <mxCell id="CP4K7bw7YaNsQZcNAUP3-21" value="" style="edgeStyle=orthogonalEdgeStyle;rounded=0;orthogonalLoop=1;jettySize=auto;html=1;strokeWidth=3;fillColor=#f0a30a;strokeColor=#BD7000;" edge="1" parent="1" source="CP4K7bw7YaNsQZcNAUP3-18" target="CP4K7bw7YaNsQZcNAUP3-20">
          <mxGeometry relative="1" as="geometry" />
        </mxCell>
        <mxCell id="CP4K7bw7YaNsQZcNAUP3-18" value="veremos cual de los dos es mas grande&amp;nbsp;" style="whiteSpace=wrap;html=1;rounded=1;strokeWidth=3;fillColor=#f0a30a;fontColor=#000000;strokeColor=#BD7000;" vertex="1" parent="1">
          <mxGeometry x="285" y="900" width="230" height="90" as="geometry" />
        </mxCell>
        <mxCell id="CP4K7bw7YaNsQZcNAUP3-23" value="" style="edgeStyle=orthogonalEdgeStyle;rounded=0;orthogonalLoop=1;jettySize=auto;html=1;strokeWidth=3;fillColor=#f0a30a;strokeColor=#BD7000;" edge="1" parent="1" source="CP4K7bw7YaNsQZcNAUP3-20" target="CP4K7bw7YaNsQZcNAUP3-22">
          <mxGeometry relative="1" as="geometry" />
        </mxCell>
        <mxCell id="CP4K7bw7YaNsQZcNAUP3-20" value="constrastaremos si ese edificio es mas grande que el edificio mas grande que hemos visto&amp;nbsp;" style="whiteSpace=wrap;html=1;rounded=1;strokeWidth=3;fillColor=#f0a30a;fontColor=#000000;strokeColor=#BD7000;" vertex="1" parent="1">
          <mxGeometry x="305" y="1030" width="190" height="90" as="geometry" />
        </mxCell>
        <mxCell id="CP4K7bw7YaNsQZcNAUP3-24" style="edgeStyle=orthogonalEdgeStyle;rounded=0;orthogonalLoop=1;jettySize=auto;html=1;entryX=0;entryY=0.5;entryDx=0;entryDy=0;strokeWidth=3;fillColor=#f0a30a;strokeColor=#BD7000;" edge="1" parent="1" source="CP4K7bw7YaNsQZcNAUP3-22" target="CP4K7bw7YaNsQZcNAUP3-12">
          <mxGeometry relative="1" as="geometry">
            <Array as="points">
              <mxPoint x="210" y="1210" />
              <mxPoint x="210" y="535" />
            </Array>
          </mxGeometry>
        </mxCell>
        <mxCell id="CP4K7bw7YaNsQZcNAUP3-22" value="anotar respuesta" style="whiteSpace=wrap;html=1;rounded=1;strokeWidth=3;fillColor=#f0a30a;fontColor=#000000;strokeColor=#BD7000;" vertex="1" parent="1">
          <mxGeometry x="340" y="1170" width="120" height="60" as="geometry" />
        </mxCell>
        <mxCell id="CP4K7bw7YaNsQZcNAUP3-27" value="imprimir las respuestas&amp;nbsp;" style="rounded=1;whiteSpace=wrap;html=1;strokeWidth=3;fontSize=15;fillColor=#f0a30a;fontColor=#000000;strokeColor=#BD7000;" vertex="1" parent="1">
          <mxGeometry x="339" y="1310" width="126" height="70" as="geometry" />
        </mxCell>
      </root>
    </mxGraphModel>
  </diagram>
</mxfile>
